<svg width="28" height="28" viewBox="0 0 28 28" fill="none" xmlns="http://www.w3.org/2000/svg">
<path d="M25.2 0.000397199C25.2 13.1448 14.5444 23.8004 1.39999 23.8004C0.930023 23.8004 0.463234 23.7868 0 23.7599V26.5642C0.463623 26.5882 0.930387 26.6004 1.39999 26.6004C16.0908 26.6004 28 14.6912 28 0.000397199H25.2Z" fill="#2F302C"/>
<path d="M23.8 7.02715e-06C23.8 12.3712 13.7712 22.4004 1.39999 22.4004C0.929804 22.4004 0.462999 22.3859 0 22.3574V19.5512C0.46242 19.5838 0.929269 19.6004 1.39999 19.6004C12.2248 19.6004 21 10.8252 21 0.000397199L23.8 7.02715e-06Z" fill="#2F302C"/>
<path d="M0 18.1474C0.462056 18.1825 0.928935 18.2004 1.39999 18.2004C11.4516 18.2004 19.6 10.052 19.6 0.000397199L16.8 7.02715e-06C16.8 8.50519 9.90518 15.4004 1.39999 15.4004C0.92807 15.4004 0.461105 15.3792 0 15.3376V18.1474Z" fill="#2F302C"/>
<path d="M0 13.9313C0.460467 13.977 0.927496 14.0004 1.39999 14.0004C9.13198 14.0004 15.4 7.73238 15.4 0.000397199L12.6 7.02715e-06C12.6 6.1856 7.58558 11.2004 1.39999 11.2004C0.925871 11.2004 0.45863 11.1709 0 11.1137V13.9313Z" fill="#2F302C"/>
<path d="M0 9.70115C0.457242 9.76656 0.924666 9.8004 1.39999 9.8004C6.81238 9.8004 11.2 5.41279 11.2 0.000397199L8.39999 7.02715e-06C8.39999 3.866 5.26599 7.0004 1.39999 7.0004C0.920543 7.0004 0.452352 6.9522 0 6.86037V9.70115Z" fill="#2F302C"/>
<path d="M0 5.42397C0.447466 5.53914 0.916576 5.6004 1.39999 5.6004C4.49279 5.6004 6.99999 3.09319 6.99999 0.000397199L0 7.02715e-06V5.42397Z" fill="#2F302C"/>
<path d="M28 8.76771C27.7147 9.63368 27.3884 10.481 27.0232 11.3073C27.3521 11.3461 27.6778 11.3952 28 11.4544V8.76771Z" fill="#2F302C"/>
<path d="M28 12.8805C27.4723 12.7734 26.9339 12.696 26.3865 12.6501C25.9036 13.602 25.3679 14.5226 24.7833 15.4081C24.9216 15.403 25.0605 15.4005 25.2 15.4005C26.1668 15.4005 27.1051 15.523 28 15.7533V12.8805Z" fill="#2F302C"/>
<path d="M14.0866 28H11.2691C11.2234 27.5397 11.2 27.0728 11.2 26.6005C11.2 26.4786 11.2016 26.357 11.2046 26.2358C12.205 25.8618 13.1783 25.4322 14.1206 24.9508C14.0412 25.4892 14 26.04 14 26.6005C14 27.0744 14.0294 27.5415 14.0866 28Z" fill="#2F302C"/>
<path d="M28 17.2063C27.1128 16.9423 26.173 16.8005 25.2 16.8005C24.6962 16.8005 24.2013 16.8385 23.718 16.9118C21.5445 19.7757 18.8325 22.2084 15.7328 24.059C15.5157 24.8695 15.4 25.7215 15.4 26.6005C15.4 27.0757 15.4338 27.5429 15.4992 28H18.3399C18.2482 27.5478 18.2 27.0798 18.2 26.6005C18.2 22.7345 21.334 19.6005 25.2 19.6005C26.1955 19.6005 27.1426 19.8083 28 20.183V17.2063Z" fill="#2F302C"/>
<path d="M28 21.7497C27.1763 21.2732 26.22 21.0005 25.2 21.0005C22.1072 21.0005 19.6 23.5077 19.6 26.6005C19.6 27.0837 19.6612 27.5527 19.7763 28H28V21.7497Z" fill="#2F302C"/>
<path d="M9.86273 28H7.05301C7.03878 27.813 7.02739 27.6251 7.01886 27.4366C7.96425 27.244 8.89231 27.0037 9.80044 26.7185C9.80368 27.1501 9.82467 27.5775 9.86273 28Z" fill="#2F302C"/>
<path d="M5.64919 28C5.64176 27.8946 5.63515 27.789 5.62939 27.6831C4.71367 27.8219 3.78339 27.9163 2.84081 27.9641C2.84153 27.976 2.84226 27.988 2.843 28H5.64919Z" fill="#2F302C"/>
<path d="M1.23418 28C0.820602 27.9976 0.409146 27.9862 0 27.9661V28H1.23418Z" fill="#2F302C"/>
</svg>
